<svg width="53" height="52" viewBox="0 0 53 52" fill="none" xmlns="http://www.w3.org/2000/svg">
<g clip-path="url(#clip0_103_78)">
<path d="M31.1829 26.8732V19.7746M26.5 26.8732V19.7746M21.4268 26.8732V19.7746M14.0122 14.6479H10.5L15.1829 32H37.8171L42.5 14.6479H39.3781M14.0122 14.6479L23.7683 4M14.0122 14.6479H39.3781M28.8415 4L39.3781 14.6479" stroke="black" stroke-width="2" stroke-linecap="round" stroke-linejoin="round"/>
<circle cx="34.5" cy="16" r="9" fill="white" stroke="black" stroke-width="2"/>
<path d="M31.875 20C31.8906 19.3906 32.0215 18.834 32.2676 18.3301C32.5059 17.7637 33.0684 17.1641 33.9551 16.5312C34.7246 15.9805 35.2227 15.5859 35.4492 15.3477C35.7969 14.9766 35.9707 14.5703 35.9707 14.1289C35.9707 13.7695 35.8711 13.4707 35.6719 13.2324C35.4727 12.9941 35.1875 12.875 34.8164 12.875C34.3086 12.875 33.9629 13.0645 33.7793 13.4434C33.6738 13.6621 33.6113 14.0098 33.5918 14.4863H31.9688C31.9961 13.7637 32.127 13.1797 32.3613 12.7344C32.8066 11.8867 33.5977 11.4629 34.7344 11.4629C35.6328 11.4629 36.3477 11.7129 36.8789 12.2129C37.4102 12.709 37.6758 13.3672 37.6758 14.1875C37.6758 14.8164 37.4883 15.375 37.1133 15.8633C36.8672 16.1875 36.4629 16.5488 35.9004 16.9473L35.2324 17.4219C34.8145 17.7188 34.5273 17.9336 34.3711 18.0664C34.2188 18.1992 34.0898 18.3535 33.9844 18.5293H37.6934V20H31.875Z" fill="black"/>
</g>
<defs>
<clipPath id="clip0_103_78">
<rect width="36" height="36" fill="white" transform="translate(8.5)"/>
</clipPath>
</defs>
</svg>
