<svg width="37" height="36" viewBox="0 0 37 36" fill="none" xmlns="http://www.w3.org/2000/svg">
<path d="M32.0325 6.4754C31.2506 5.69063 30.3222 5.06809 29.3004 4.64335C28.2786 4.21861 27.1834 4 26.0774 4C24.9714 4 23.8762 4.21861 22.8544 4.64335C21.8326 5.06809 20.9042 5.69063 20.1223 6.4754L18.4996 8.10333L16.8769 6.4754C15.2975 4.89096 13.1554 4.00082 10.9218 4.00082C8.68818 4.00082 6.54607 4.89096 4.96668 6.4754C3.38729 8.05985 2.5 10.2088 2.5 12.4496C2.5 14.6903 3.38729 16.8393 4.96668 18.4237L6.5894 20.0517L18.4996 32L30.4098 20.0517L32.0325 18.4237C32.8148 17.6393 33.4353 16.708 33.8587 15.6829C34.2821 14.6579 34.5 13.5592 34.5 12.4496C34.5 11.34 34.2821 10.2413 33.8587 9.21622C33.4353 8.19115 32.8148 7.25981 32.0325 6.4754V6.4754Z" stroke="black" stroke-opacity="0.45" stroke-width="2" stroke-linecap="round" stroke-linejoin="round"/>
</svg>
