<svg width="37" height="36" viewBox="0 0 37 36" fill="none" xmlns="http://www.w3.org/2000/svg">
<path d="M18.5 12C17.7889 11.8333 16.3667 11.1 16.3667 9.5C16.3667 7.9 17.4333 6.5 17.9667 6C18.1444 5.83333 18.7133 5.2 19.5667 4M25.9667 12C25.2556 11.8333 23.8333 11.1 23.8333 9.5C23.8333 7.9 24.9 6.5 25.4333 6C25.6111 5.83333 26.18 5.2 27.0333 4M11.0333 12C10.3222 11.8333 8.9 11.1 8.9 9.5C8.9 7.9 9.96667 6.5 10.5 6C10.6778 5.83333 11.2467 5.2 12.1 4M25.0085 32H12.2627V29.9683C9.46046 29.037 3.58475 25.6508 2.5 19.5556C2.5 16.508 2.5 17.0159 2.5 16H34.5V19.5556C33.8673 22.9418 31.2458 27.6826 25.0085 29.9683C25.0085 31.4921 25.0085 30.7302 25.0085 32Z" stroke="black" stroke-opacity="0.45" stroke-width="2" stroke-linecap="round" stroke-linejoin="round"/>
</svg>
