<svg width="44" height="44" viewBox="0 0 44 44" fill="none" xmlns="http://www.w3.org/2000/svg">
<path d="M17.9805 32.748H26.9355C27.6322 32.748 28.1986 32.5397 28.6348 32.123C29.071 31.7063 29.3054 31.1465 29.3379 30.4434L30.0117 16.2441H31.1836C31.3854 16.2441 31.5563 16.1709 31.6963 16.0244C31.8362 15.8779 31.9062 15.7038 31.9062 15.5019C31.9062 15.3001 31.8346 15.1276 31.6914 14.9844C31.5482 14.8411 31.3789 14.7695 31.1836 14.7695H13.7324C13.5371 14.7695 13.3662 14.8428 13.2197 14.9893C13.0732 15.1357 13 15.3066 13 15.5019C13 15.7038 13.0732 15.8779 13.2197 16.0244C13.3662 16.1709 13.5371 16.2441 13.7324 16.2441H14.9043L15.5781 30.4531C15.6107 31.1562 15.8434 31.7145 16.2764 32.1279C16.7093 32.5413 17.2773 32.748 17.9805 32.748ZM18.1172 31.2734C17.8372 31.2734 17.6029 31.179 17.4141 30.9902C17.2253 30.8014 17.1244 30.5638 17.1113 30.2773L16.4277 16.2441H28.4395L27.7949 30.2773C27.7819 30.5703 27.681 30.8096 27.4922 30.9951C27.3034 31.1806 27.0658 31.2734 26.7793 31.2734H18.1172ZM19.5625 29.6035C19.7448 29.6035 19.8913 29.5498 20.0019 29.4424C20.1126 29.3349 20.168 29.1966 20.168 29.0273L19.8652 18.5781C19.8652 18.4089 19.8083 18.2721 19.6943 18.168C19.5804 18.0638 19.4355 18.0117 19.2598 18.0117C19.0775 18.0117 18.9294 18.0654 18.8154 18.1729C18.7015 18.2803 18.6478 18.4186 18.6543 18.5879L18.9473 29.0273C18.9538 29.2031 19.0124 29.3431 19.1231 29.4473C19.2337 29.5514 19.3802 29.6035 19.5625 29.6035ZM22.4531 29.6035C22.6419 29.6035 22.7949 29.5498 22.9121 29.4424C23.0293 29.3349 23.0879 29.1966 23.0879 29.0273V18.5879C23.0879 18.4186 23.0293 18.2803 22.9121 18.1729C22.7949 18.0654 22.6419 18.0117 22.4531 18.0117C22.2708 18.0117 22.1211 18.0654 22.0039 18.1729C21.8867 18.2803 21.8281 18.4186 21.8281 18.5879V29.0273C21.8281 29.1966 21.8867 29.3349 22.0039 29.4424C22.1211 29.5498 22.2708 29.6035 22.4531 29.6035ZM25.3535 29.6035C25.5293 29.6035 25.6725 29.5514 25.7832 29.4473C25.8939 29.3431 25.9525 29.2031 25.959 29.0273L26.252 18.5879C26.2585 18.4186 26.2064 18.2803 26.0957 18.1729C25.985 18.0654 25.8353 18.0117 25.6465 18.0117C25.4707 18.0117 25.3275 18.0638 25.2168 18.168C25.1061 18.2721 25.0475 18.4121 25.041 18.5879L24.748 29.0273C24.7415 29.1966 24.7936 29.3349 24.9043 29.4424C25.015 29.5498 25.1647 29.6035 25.3535 29.6035ZM18.166 15.4629H19.7188V13.373C19.7188 13.0996 19.8083 12.8783 19.9873 12.709C20.1663 12.5397 20.4023 12.4551 20.6953 12.4551H24.1914C24.4844 12.4551 24.7204 12.5397 24.8994 12.709C25.0785 12.8783 25.168 13.0996 25.168 13.373V15.4629H26.7207V13.2754C26.7207 12.5723 26.5042 12.0173 26.0713 11.6104C25.6384 11.2035 25.0475 11 24.2988 11H20.5879C19.8392 11 19.2484 11.2035 18.8154 11.6104C18.3825 12.0173 18.166 12.5723 18.166 13.2754V15.4629Z" fill="black"/>
</svg>
