<svg width="390" height="238" viewBox="0 0 390 238" fill="none" xmlns="http://www.w3.org/2000/svg">
<path d="M218.122 114.732V79.7465M195 114.732V79.7465M169.951 114.732V79.7465M133.341 54.4789H116L139.122 140H250.878L274 54.4789H258.585M133.341 54.4789L181.512 2M133.341 54.4789H258.585M206.561 2L258.585 54.4789" stroke="black" stroke-width="3" stroke-linecap="round" stroke-linejoin="round"/>
<path d="M26.0186 193.565H22.8091V199H19.6714V183.886H26.2544C27.772 183.886 28.9819 184.275 29.8843 185.055C30.7866 185.834 31.2378 187.041 31.2378 188.674C31.2378 190.458 30.7866 191.72 29.8843 192.458C28.9819 193.196 27.6934 193.565 26.0186 193.565ZM27.4951 190.417C27.9053 190.055 28.1104 189.481 28.1104 188.695C28.1104 187.909 27.9019 187.348 27.4849 187.013C27.0747 186.678 26.4971 186.511 25.752 186.511H22.8091V190.961H25.752C26.4971 190.961 27.0781 190.78 27.4951 190.417ZM33.4321 183.886H36.3545V199H33.4321V183.886ZM48.7822 195.719C48.707 196.382 48.3618 197.055 47.7466 197.739C46.7896 198.826 45.4497 199.369 43.7271 199.369C42.3052 199.369 41.0508 198.911 39.9639 197.995C38.877 197.079 38.3335 195.589 38.3335 193.524C38.3335 191.59 38.8223 190.106 39.7998 189.074C40.7842 188.042 42.0591 187.526 43.6245 187.526C44.5542 187.526 45.3916 187.7 46.1367 188.049C46.8818 188.397 47.4971 188.948 47.9824 189.7C48.4199 190.363 48.7036 191.132 48.8335 192.007C48.9087 192.52 48.9395 193.258 48.9258 194.222H41.2764C41.3174 195.343 41.6694 196.129 42.3325 196.58C42.7358 196.86 43.2212 197 43.7886 197C44.3901 197 44.8789 196.83 45.2549 196.488C45.46 196.303 45.6411 196.047 45.7983 195.719H48.7822ZM45.8906 192.294C45.8428 191.521 45.6069 190.937 45.1831 190.541C44.7661 190.137 44.2466 189.936 43.6245 189.936C42.9478 189.936 42.4214 190.147 42.0454 190.571C41.6763 190.995 41.4438 191.569 41.3481 192.294H45.8906ZM51.3252 189.033C52.0977 188.049 53.4238 187.557 55.3037 187.557C56.5273 187.557 57.6143 187.799 58.5645 188.285C59.5146 188.77 59.9897 189.686 59.9897 191.033V196.16C59.9897 196.515 59.9966 196.946 60.0103 197.452C60.0308 197.834 60.0889 198.094 60.1846 198.231C60.2803 198.368 60.4238 198.48 60.6152 198.569V199H57.4365C57.3477 198.774 57.2861 198.562 57.252 198.364C57.2178 198.166 57.1904 197.94 57.1699 197.688C56.7666 198.125 56.3018 198.498 55.7754 198.805C55.1465 199.167 54.4355 199.349 53.6426 199.349C52.6309 199.349 51.7935 199.062 51.1304 198.487C50.4741 197.906 50.146 197.086 50.146 196.026C50.146 194.652 50.6758 193.658 51.7354 193.042C52.3164 192.708 53.1709 192.468 54.2988 192.325L55.2935 192.202C55.8335 192.133 56.2197 192.048 56.4521 191.945C56.8691 191.768 57.0776 191.491 57.0776 191.115C57.0776 190.657 56.917 190.342 56.5957 190.171C56.2812 189.994 55.8164 189.905 55.2012 189.905C54.5107 189.905 54.022 190.076 53.7349 190.417C53.5298 190.67 53.3931 191.012 53.3247 191.443H50.5049C50.5664 190.465 50.8398 189.662 51.3252 189.033ZM53.499 196.888C53.7725 197.113 54.1074 197.226 54.5039 197.226C55.1328 197.226 55.7104 197.042 56.2368 196.672C56.77 196.303 57.0469 195.63 57.0674 194.652V193.565C56.8828 193.682 56.6948 193.777 56.5034 193.853C56.3188 193.921 56.0625 193.986 55.7344 194.047L55.0781 194.17C54.4629 194.28 54.022 194.413 53.7554 194.57C53.3042 194.837 53.0786 195.25 53.0786 195.811C53.0786 196.31 53.2188 196.669 53.499 196.888ZM70.2949 188.336C71.1699 188.896 71.6724 189.86 71.8022 191.228H68.8799C68.8389 190.852 68.7329 190.554 68.562 190.335C68.2407 189.939 67.6938 189.741 66.9214 189.741C66.2856 189.741 65.8311 189.84 65.5576 190.038C65.291 190.236 65.1577 190.469 65.1577 190.735C65.1577 191.07 65.3013 191.313 65.5884 191.463C65.8755 191.621 66.8906 191.891 68.6338 192.273C69.7959 192.547 70.6675 192.96 71.2485 193.514C71.8228 194.075 72.1099 194.775 72.1099 195.616C72.1099 196.724 71.6963 197.629 70.8691 198.333C70.0488 199.031 68.7773 199.379 67.0547 199.379C65.2979 199.379 63.999 199.01 63.1582 198.272C62.3242 197.527 61.9072 196.58 61.9072 195.432H64.8706C64.9321 195.951 65.0654 196.32 65.2705 196.539C65.6328 196.929 66.3027 197.124 67.2803 197.124C67.8545 197.124 68.3091 197.038 68.644 196.867C68.9858 196.696 69.1567 196.44 69.1567 196.098C69.1567 195.77 69.02 195.521 68.7466 195.35C68.4731 195.179 67.458 194.885 65.7012 194.468C64.4365 194.153 63.5444 193.76 63.0249 193.289C62.5054 192.824 62.2456 192.154 62.2456 191.279C62.2456 190.247 62.6489 189.361 63.4556 188.623C64.269 187.878 65.4106 187.505 66.8804 187.505C68.2749 187.505 69.4131 187.782 70.2949 188.336ZM83.8506 195.719C83.7754 196.382 83.4302 197.055 82.8149 197.739C81.8579 198.826 80.5181 199.369 78.7954 199.369C77.3735 199.369 76.1191 198.911 75.0322 197.995C73.9453 197.079 73.4019 195.589 73.4019 193.524C73.4019 191.59 73.8906 190.106 74.8682 189.074C75.8525 188.042 77.1274 187.526 78.6929 187.526C79.6226 187.526 80.46 187.7 81.2051 188.049C81.9502 188.397 82.5654 188.948 83.0508 189.7C83.4883 190.363 83.772 191.132 83.9019 192.007C83.9771 192.52 84.0078 193.258 83.9941 194.222H76.3447C76.3857 195.343 76.7378 196.129 77.4009 196.58C77.8042 196.86 78.2896 197 78.8569 197C79.4585 197 79.9473 196.83 80.3232 196.488C80.5283 196.303 80.7095 196.047 80.8667 195.719H83.8506ZM80.959 192.294C80.9111 191.521 80.6753 190.937 80.2515 190.541C79.8345 190.137 79.3149 189.936 78.6929 189.936C78.0161 189.936 77.4897 190.147 77.1138 190.571C76.7446 190.995 76.5122 191.569 76.4165 192.294H80.959ZM88.793 200.046C88.6699 200.552 88.4409 200.989 88.106 201.358C87.7437 201.755 87.3164 202.052 86.8242 202.25C86.3389 202.456 86.0039 202.558 85.8193 202.558V201.43C86.4072 201.266 86.8379 200.993 87.1113 200.61C87.3916 200.227 87.5522 199.69 87.5933 199H85.8193V195.944H88.9775V198.59C88.9775 199.055 88.916 199.54 88.793 200.046ZM107.168 198.631C106.334 199.144 105.309 199.4 104.092 199.4C102.089 199.4 100.448 198.706 99.1699 197.318C97.8369 195.924 97.1704 194.017 97.1704 191.597C97.1704 189.149 97.8438 187.188 99.1904 185.711C100.537 184.234 102.318 183.496 104.533 183.496C106.454 183.496 107.995 183.985 109.157 184.962C110.326 185.933 110.996 187.146 111.167 188.603H108.06C107.821 187.57 107.236 186.849 106.307 186.439C105.787 186.213 105.209 186.101 104.574 186.101C103.357 186.101 102.355 186.562 101.569 187.485C100.79 188.401 100.4 189.782 100.4 191.627C100.4 193.487 100.824 194.803 101.672 195.575C102.52 196.348 103.483 196.734 104.563 196.734C105.623 196.734 106.491 196.43 107.168 195.821C107.845 195.206 108.262 194.403 108.419 193.412H104.922V190.889H111.218V199H109.126L108.809 197.113C108.2 197.831 107.653 198.337 107.168 198.631ZM123.328 189.238C124.271 190.421 124.743 191.819 124.743 193.432C124.743 195.073 124.271 196.478 123.328 197.646C122.385 198.809 120.953 199.39 119.032 199.39C117.111 199.39 115.679 198.809 114.735 197.646C113.792 196.478 113.32 195.073 113.32 193.432C113.32 191.819 113.792 190.421 114.735 189.238C115.679 188.056 117.111 187.464 119.032 187.464C120.953 187.464 122.385 188.056 123.328 189.238ZM119.021 189.936C118.167 189.936 117.507 190.24 117.042 190.848C116.584 191.45 116.355 192.311 116.355 193.432C116.355 194.553 116.584 195.418 117.042 196.026C117.507 196.635 118.167 196.939 119.021 196.939C119.876 196.939 120.532 196.635 120.99 196.026C121.448 195.418 121.677 194.553 121.677 193.432C121.677 192.311 121.448 191.45 120.99 190.848C120.532 190.24 119.876 189.936 119.021 189.936ZM137.807 196.918V199.103L136.422 199.154C135.042 199.202 134.098 198.962 133.592 198.436C133.264 198.101 133.1 197.585 133.1 196.888V190.007H131.542V187.926H133.1V184.809H135.992V187.926H137.807V190.007H135.992V195.914C135.992 196.372 136.05 196.659 136.166 196.775C136.282 196.884 136.638 196.939 137.232 196.939C137.321 196.939 137.414 196.939 137.509 196.939C137.612 196.932 137.711 196.925 137.807 196.918ZM149.004 189.238C149.947 190.421 150.419 191.819 150.419 193.432C150.419 195.073 149.947 196.478 149.004 197.646C148.061 198.809 146.628 199.39 144.708 199.39C142.787 199.39 141.354 198.809 140.411 197.646C139.468 196.478 138.996 195.073 138.996 193.432C138.996 191.819 139.468 190.421 140.411 189.238C141.354 188.056 142.787 187.464 144.708 187.464C146.628 187.464 148.061 188.056 149.004 189.238ZM144.697 189.936C143.843 189.936 143.183 190.24 142.718 190.848C142.26 191.45 142.031 192.311 142.031 193.432C142.031 194.553 142.26 195.418 142.718 196.026C143.183 196.635 143.843 196.939 144.697 196.939C145.552 196.939 146.208 196.635 146.666 196.026C147.124 195.418 147.353 194.553 147.353 193.432C147.353 192.311 147.124 191.45 146.666 190.848C146.208 190.24 145.552 189.936 144.697 189.936ZM164.641 190.899C164.395 190.359 163.913 190.089 163.195 190.089C162.361 190.089 161.801 190.359 161.514 190.899C161.356 191.207 161.278 191.665 161.278 192.273V199H158.314V187.844H161.155V189.474C161.517 188.893 161.859 188.479 162.18 188.233C162.748 187.796 163.482 187.577 164.385 187.577C165.239 187.577 165.93 187.765 166.456 188.141C166.88 188.49 167.201 188.938 167.42 189.484C167.803 188.828 168.278 188.346 168.845 188.039C169.447 187.731 170.117 187.577 170.855 187.577C171.347 187.577 171.833 187.673 172.311 187.864C172.79 188.056 173.224 188.391 173.613 188.869C173.928 189.259 174.14 189.737 174.249 190.305C174.317 190.681 174.352 191.231 174.352 191.956L174.331 199H171.337V191.884C171.337 191.46 171.269 191.111 171.132 190.838C170.872 190.318 170.394 190.059 169.696 190.059C168.89 190.059 168.333 190.394 168.025 191.063C167.868 191.419 167.789 191.846 167.789 192.345V199H164.846V192.345C164.846 191.682 164.778 191.2 164.641 190.899ZM186.615 195.719C186.54 196.382 186.195 197.055 185.58 197.739C184.623 198.826 183.283 199.369 181.56 199.369C180.138 199.369 178.884 198.911 177.797 197.995C176.71 197.079 176.167 195.589 176.167 193.524C176.167 191.59 176.655 190.106 177.633 189.074C178.617 188.042 179.892 187.526 181.458 187.526C182.387 187.526 183.225 187.7 183.97 188.049C184.715 188.397 185.33 188.948 185.815 189.7C186.253 190.363 186.537 191.132 186.667 192.007C186.742 192.52 186.772 193.258 186.759 194.222H179.109C179.15 195.343 179.502 196.129 180.166 196.58C180.569 196.86 181.054 197 181.622 197C182.223 197 182.712 196.83 183.088 196.488C183.293 196.303 183.474 196.047 183.631 195.719H186.615ZM183.724 192.294C183.676 191.521 183.44 190.937 183.016 190.541C182.599 190.137 182.08 189.936 181.458 189.936C180.781 189.936 180.254 190.147 179.878 190.571C179.509 190.995 179.277 191.569 179.181 192.294H183.724ZM193.998 189.987C193.007 189.987 192.327 190.407 191.958 191.248C191.766 191.692 191.67 192.26 191.67 192.95V199H188.758V187.844H191.578V189.474C191.954 188.9 192.31 188.486 192.645 188.233C193.246 187.782 194.008 187.557 194.931 187.557C196.086 187.557 197.03 187.861 197.761 188.469C198.5 189.071 198.869 190.072 198.869 191.474V199H195.875V192.202C195.875 191.614 195.796 191.163 195.639 190.848C195.352 190.274 194.805 189.987 193.998 189.987ZM208.743 197.421C208.716 197.455 208.647 197.558 208.538 197.729C208.429 197.899 208.299 198.05 208.148 198.18C207.69 198.59 207.246 198.87 206.815 199.021C206.392 199.171 205.893 199.246 205.318 199.246C203.664 199.246 202.55 198.651 201.976 197.462C201.654 196.806 201.494 195.838 201.494 194.56V187.823H204.488V194.56C204.488 195.196 204.563 195.674 204.713 195.996C204.98 196.563 205.503 196.847 206.282 196.847C207.28 196.847 207.964 196.443 208.333 195.637C208.524 195.199 208.62 194.622 208.62 193.904V187.823H211.583V199H208.743V197.421ZM220.679 189.033C221.451 188.049 222.777 187.557 224.657 187.557C225.881 187.557 226.968 187.799 227.918 188.285C228.868 188.77 229.343 189.686 229.343 191.033V196.16C229.343 196.515 229.35 196.946 229.364 197.452C229.384 197.834 229.442 198.094 229.538 198.231C229.634 198.368 229.777 198.48 229.969 198.569V199H226.79C226.701 198.774 226.64 198.562 226.605 198.364C226.571 198.166 226.544 197.94 226.523 197.688C226.12 198.125 225.655 198.498 225.129 198.805C224.5 199.167 223.789 199.349 222.996 199.349C221.984 199.349 221.147 199.062 220.484 198.487C219.828 197.906 219.5 197.086 219.5 196.026C219.5 194.652 220.029 193.658 221.089 193.042C221.67 192.708 222.524 192.468 223.652 192.325L224.647 192.202C225.187 192.133 225.573 192.048 225.806 191.945C226.223 191.768 226.431 191.491 226.431 191.115C226.431 190.657 226.271 190.342 225.949 190.171C225.635 189.994 225.17 189.905 224.555 189.905C223.864 189.905 223.375 190.076 223.088 190.417C222.883 190.67 222.747 191.012 222.678 191.443H219.858C219.92 190.465 220.193 189.662 220.679 189.033ZM222.853 196.888C223.126 197.113 223.461 197.226 223.857 197.226C224.486 197.226 225.064 197.042 225.59 196.672C226.124 196.303 226.4 195.63 226.421 194.652V193.565C226.236 193.682 226.048 193.777 225.857 193.853C225.672 193.921 225.416 193.986 225.088 194.047L224.432 194.17C223.816 194.28 223.375 194.413 223.109 194.57C222.658 194.837 222.432 195.25 222.432 195.811C222.432 196.31 222.572 196.669 222.853 196.888ZM237.208 189.987C236.217 189.987 235.537 190.407 235.167 191.248C234.976 191.692 234.88 192.26 234.88 192.95V199H231.968V187.844H234.788V189.474C235.164 188.9 235.52 188.486 235.854 188.233C236.456 187.782 237.218 187.557 238.141 187.557C239.296 187.557 240.24 187.861 240.971 188.469C241.709 189.071 242.079 190.072 242.079 191.474V199H239.084V192.202C239.084 191.614 239.006 191.163 238.849 190.848C238.562 190.274 238.015 189.987 237.208 189.987ZM254.958 183.906V199H252.117V197.452C251.7 198.115 251.225 198.597 250.692 198.897C250.159 199.198 249.496 199.349 248.703 199.349C247.397 199.349 246.296 198.822 245.401 197.77C244.512 196.71 244.068 195.353 244.068 193.699C244.068 191.792 244.505 190.291 245.38 189.197C246.262 188.104 247.438 187.557 248.908 187.557C249.584 187.557 250.186 187.707 250.712 188.008C251.239 188.302 251.666 188.712 251.994 189.238V183.906H254.958ZM247.083 193.483C247.083 194.516 247.288 195.339 247.698 195.955C248.101 196.577 248.716 196.888 249.543 196.888C250.371 196.888 251 196.58 251.43 195.965C251.861 195.35 252.076 194.553 252.076 193.576C252.076 192.208 251.731 191.231 251.041 190.643C250.617 190.288 250.125 190.11 249.564 190.11C248.709 190.11 248.081 190.435 247.677 191.084C247.281 191.727 247.083 192.526 247.083 193.483ZM271.169 188.336C272.044 188.896 272.546 189.86 272.676 191.228H269.754C269.713 190.852 269.607 190.554 269.436 190.335C269.115 189.939 268.568 189.741 267.795 189.741C267.16 189.741 266.705 189.84 266.432 190.038C266.165 190.236 266.032 190.469 266.032 190.735C266.032 191.07 266.175 191.313 266.462 191.463C266.75 191.621 267.765 191.891 269.508 192.273C270.67 192.547 271.542 192.96 272.123 193.514C272.697 194.075 272.984 194.775 272.984 195.616C272.984 196.724 272.57 197.629 271.743 198.333C270.923 199.031 269.651 199.379 267.929 199.379C266.172 199.379 264.873 199.01 264.032 198.272C263.198 197.527 262.781 196.58 262.781 195.432H265.745C265.806 195.951 265.939 196.32 266.145 196.539C266.507 196.929 267.177 197.124 268.154 197.124C268.729 197.124 269.183 197.038 269.518 196.867C269.86 196.696 270.031 196.44 270.031 196.098C270.031 195.77 269.894 195.521 269.621 195.35C269.347 195.179 268.332 194.885 266.575 194.468C265.311 194.153 264.418 193.76 263.899 193.289C263.379 192.824 263.12 192.154 263.12 191.279C263.12 190.247 263.523 189.361 264.33 188.623C265.143 187.878 266.285 187.505 267.754 187.505C269.149 187.505 270.287 187.782 271.169 188.336ZM284.725 195.719C284.649 196.382 284.304 197.055 283.689 197.739C282.732 198.826 281.392 199.369 279.669 199.369C278.248 199.369 276.993 198.911 275.906 197.995C274.819 197.079 274.276 195.589 274.276 193.524C274.276 191.59 274.765 190.106 275.742 189.074C276.727 188.042 278.001 187.526 279.567 187.526C280.497 187.526 281.334 187.7 282.079 188.049C282.824 188.397 283.439 188.948 283.925 189.7C284.362 190.363 284.646 191.132 284.776 192.007C284.851 192.52 284.882 193.258 284.868 194.222H277.219C277.26 195.343 277.612 196.129 278.275 196.58C278.678 196.86 279.164 197 279.731 197C280.333 197 280.821 196.83 281.197 196.488C281.402 196.303 281.583 196.047 281.741 195.719H284.725ZM281.833 192.294C281.785 191.521 281.549 190.937 281.125 190.541C280.708 190.137 280.189 189.936 279.567 189.936C278.89 189.936 278.364 190.147 277.988 190.571C277.619 190.995 277.386 191.569 277.291 192.294H281.833ZM286.909 183.886H289.831V199H286.909V183.886ZM302.259 195.719C302.184 196.382 301.838 197.055 301.223 197.739C300.266 198.826 298.926 199.369 297.204 199.369C295.782 199.369 294.527 198.911 293.44 197.995C292.354 197.079 291.81 195.589 291.81 193.524C291.81 191.59 292.299 190.106 293.276 189.074C294.261 188.042 295.536 187.526 297.101 187.526C298.031 187.526 298.868 187.7 299.613 188.049C300.358 188.397 300.974 188.948 301.459 189.7C301.896 190.363 302.18 191.132 302.31 192.007C302.385 192.52 302.416 193.258 302.402 194.222H294.753C294.794 195.343 295.146 196.129 295.809 196.58C296.212 196.86 296.698 197 297.265 197C297.867 197 298.355 196.83 298.731 196.488C298.937 196.303 299.118 196.047 299.275 195.719H302.259ZM299.367 192.294C299.319 191.521 299.083 190.937 298.66 190.541C298.243 190.137 297.723 189.936 297.101 189.936C296.424 189.936 295.898 190.147 295.522 190.571C295.153 190.995 294.92 191.569 294.825 192.294H299.367ZM314.051 191.833H311.057C311.002 191.416 310.862 191.04 310.636 190.705C310.308 190.253 309.799 190.028 309.108 190.028C308.124 190.028 307.451 190.517 307.088 191.494C306.897 192.014 306.801 192.704 306.801 193.565C306.801 194.386 306.897 195.045 307.088 195.544C307.437 196.474 308.093 196.939 309.057 196.939C309.741 196.939 310.226 196.754 310.513 196.385C310.8 196.016 310.975 195.538 311.036 194.95H314.02C313.952 195.838 313.63 196.679 313.056 197.472C312.14 198.75 310.783 199.39 308.985 199.39C307.188 199.39 305.865 198.856 305.017 197.79C304.169 196.724 303.746 195.339 303.746 193.637C303.746 191.716 304.214 190.223 305.15 189.156C306.087 188.09 307.379 187.557 309.026 187.557C310.428 187.557 311.573 187.871 312.461 188.5C313.357 189.129 313.887 190.24 314.051 191.833ZM321.188 196.918V199.103L319.803 199.154C318.422 199.202 317.479 198.962 316.973 198.436C316.645 198.101 316.481 197.585 316.481 196.888V190.007H314.922V187.926H316.481V184.809H319.373V187.926H321.188V190.007H319.373V195.914C319.373 196.372 319.431 196.659 319.547 196.775C319.663 196.884 320.019 196.939 320.613 196.939C320.702 196.939 320.794 196.939 320.89 196.939C320.993 196.932 321.092 196.925 321.188 196.918ZM29.5356 214.906V230H26.6953V228.452C26.2783 229.115 25.8032 229.597 25.27 229.897C24.7368 230.198 24.0737 230.349 23.2808 230.349C21.9751 230.349 20.8745 229.822 19.979 228.77C19.0903 227.71 18.646 226.353 18.646 224.699C18.646 222.792 19.0835 221.291 19.9585 220.197C20.8403 219.104 22.0161 218.557 23.4858 218.557C24.1626 218.557 24.7642 218.707 25.2905 219.008C25.8169 219.302 26.2441 219.712 26.5723 220.238V214.906H29.5356ZM21.6606 224.483C21.6606 225.516 21.8657 226.339 22.2759 226.955C22.6792 227.577 23.2944 227.888 24.1216 227.888C24.9487 227.888 25.5776 227.58 26.0083 226.965C26.439 226.35 26.6543 225.553 26.6543 224.576C26.6543 223.208 26.3091 222.231 25.6187 221.643C25.1948 221.288 24.7026 221.11 24.1421 221.11C23.2876 221.11 22.6587 221.435 22.2554 222.084C21.8589 222.727 21.6606 223.526 21.6606 224.483ZM35.2061 218.823V230H32.2427V218.823H35.2061ZM35.2061 214.793V217.49H32.2427V214.793H35.2061ZM45.7471 219.336C46.6221 219.896 47.1245 220.86 47.2544 222.228H44.332C44.291 221.852 44.1851 221.554 44.0142 221.335C43.6929 220.939 43.146 220.741 42.3735 220.741C41.7378 220.741 41.2832 220.84 41.0098 221.038C40.7432 221.236 40.6099 221.469 40.6099 221.735C40.6099 222.07 40.7534 222.313 41.0405 222.463C41.3276 222.621 42.3428 222.891 44.0859 223.273C45.248 223.547 46.1196 223.96 46.7007 224.514C47.2749 225.075 47.562 225.775 47.562 226.616C47.562 227.724 47.1484 228.629 46.3213 229.333C45.501 230.031 44.2295 230.379 42.5068 230.379C40.75 230.379 39.4512 230.01 38.6104 229.272C37.7764 228.527 37.3594 227.58 37.3594 226.432H40.3228C40.3843 226.951 40.5176 227.32 40.7227 227.539C41.085 227.929 41.7549 228.124 42.7324 228.124C43.3066 228.124 43.7612 228.038 44.0962 227.867C44.438 227.696 44.6089 227.44 44.6089 227.098C44.6089 226.77 44.4722 226.521 44.1987 226.35C43.9253 226.179 42.9102 225.885 41.1533 225.468C39.8887 225.153 38.9966 224.76 38.4771 224.289C37.9575 223.824 37.6978 223.154 37.6978 222.279C37.6978 221.247 38.1011 220.361 38.9077 219.623C39.7212 218.878 40.8628 218.505 42.3325 218.505C43.7271 218.505 44.8652 218.782 45.7471 219.336ZM59.8359 223.438V230H56.8521V223.202C56.8521 222.6 56.7495 222.115 56.5444 221.746C56.2778 221.226 55.772 220.966 55.0269 220.966C54.2544 220.966 53.6665 221.226 53.2632 221.746C52.8667 222.258 52.6685 222.993 52.6685 223.95V230H49.7563V214.937H52.6685V220.279C53.0923 219.63 53.5811 219.179 54.1348 218.926C54.6953 218.666 55.2832 218.536 55.8984 218.536C56.5889 218.536 57.2144 218.656 57.7749 218.895C58.3423 219.134 58.8071 219.5 59.1694 219.992C59.4771 220.409 59.665 220.84 59.7334 221.284C59.8018 221.722 59.8359 222.439 59.8359 223.438ZM72.1406 226.719C72.0654 227.382 71.7202 228.055 71.105 228.739C70.1479 229.826 68.8081 230.369 67.0854 230.369C65.6636 230.369 64.4092 229.911 63.3223 228.995C62.2354 228.079 61.6919 226.589 61.6919 224.524C61.6919 222.59 62.1807 221.106 63.1582 220.074C64.1426 219.042 65.4175 218.526 66.9829 218.526C67.9126 218.526 68.75 218.7 69.4951 219.049C70.2402 219.397 70.8555 219.948 71.3408 220.7C71.7783 221.363 72.062 222.132 72.1919 223.007C72.2671 223.52 72.2979 224.258 72.2842 225.222H64.6348C64.6758 226.343 65.0278 227.129 65.6909 227.58C66.0942 227.86 66.5796 228 67.147 228C67.7485 228 68.2373 227.83 68.6133 227.488C68.8184 227.303 68.9995 227.047 69.1567 226.719H72.1406ZM69.249 223.294C69.2012 222.521 68.9653 221.937 68.5415 221.541C68.1245 221.137 67.605 220.936 66.9829 220.936C66.3062 220.936 65.7798 221.147 65.4038 221.571C65.0347 221.995 64.8022 222.569 64.7065 223.294H69.249ZM81.9639 219.336C82.8389 219.896 83.3413 220.86 83.4712 222.228H80.5488C80.5078 221.852 80.4019 221.554 80.231 221.335C79.9097 220.939 79.3628 220.741 78.5903 220.741C77.9546 220.741 77.5 220.84 77.2266 221.038C76.96 221.236 76.8267 221.469 76.8267 221.735C76.8267 222.07 76.9702 222.313 77.2573 222.463C77.5444 222.621 78.5596 222.891 80.3027 223.273C81.4648 223.547 82.3364 223.96 82.9175 224.514C83.4917 225.075 83.7788 225.775 83.7788 226.616C83.7788 227.724 83.3652 228.629 82.5381 229.333C81.7178 230.031 80.4463 230.379 78.7236 230.379C76.9668 230.379 75.668 230.01 74.8271 229.272C73.9932 228.527 73.5762 227.58 73.5762 226.432H76.5396C76.6011 226.951 76.7344 227.32 76.9395 227.539C77.3018 227.929 77.9717 228.124 78.9492 228.124C79.5234 228.124 79.978 228.038 80.313 227.867C80.6548 227.696 80.8257 227.44 80.8257 227.098C80.8257 226.77 80.689 226.521 80.4155 226.35C80.1421 226.179 79.127 225.885 77.3701 225.468C76.1055 225.153 75.2134 224.76 74.6938 224.289C74.1743 223.824 73.9146 223.154 73.9146 222.279C73.9146 221.247 74.3179 220.361 75.1245 219.623C75.938 218.878 77.0796 218.505 78.5493 218.505C79.9438 218.505 81.082 218.782 81.9639 219.336ZM96.9141 227.918V230.103L95.5298 230.154C94.1489 230.202 93.2056 229.962 92.6997 229.436C92.3716 229.101 92.2075 228.585 92.2075 227.888V221.007H90.6489V218.926H92.2075V215.809H95.0991V218.926H96.9141V221.007H95.0991V226.914C95.0991 227.372 95.1572 227.659 95.2734 227.775C95.3896 227.884 95.7451 227.939 96.3398 227.939C96.4287 227.939 96.521 227.939 96.6167 227.939C96.7192 227.932 96.8184 227.925 96.9141 227.918ZM108.111 220.238C109.055 221.421 109.526 222.819 109.526 224.432C109.526 226.073 109.055 227.478 108.111 228.646C107.168 229.809 105.736 230.39 103.815 230.39C101.894 230.39 100.462 229.809 99.5186 228.646C98.5752 227.478 98.1035 226.073 98.1035 224.432C98.1035 222.819 98.5752 221.421 99.5186 220.238C100.462 219.056 101.894 218.464 103.815 218.464C105.736 218.464 107.168 219.056 108.111 220.238ZM103.805 220.936C102.95 220.936 102.291 221.24 101.826 221.848C101.368 222.45 101.139 223.311 101.139 224.432C101.139 225.553 101.368 226.418 101.826 227.026C102.291 227.635 102.95 227.939 103.805 227.939C104.659 227.939 105.315 227.635 105.773 227.026C106.231 226.418 106.46 225.553 106.46 224.432C106.46 223.311 106.231 222.45 105.773 221.848C105.315 221.24 104.659 220.936 103.805 220.936ZM126.835 220.023C127.737 220.987 128.188 222.402 128.188 224.268C128.188 226.237 127.744 227.737 126.855 228.77C125.974 229.802 124.835 230.318 123.441 230.318C122.552 230.318 121.814 230.096 121.226 229.651C120.905 229.405 120.59 229.046 120.283 228.575V234.399H117.391V218.823H120.19V220.474C120.505 219.989 120.84 219.606 121.195 219.326C121.845 218.827 122.617 218.577 123.513 218.577C124.818 218.577 125.926 219.059 126.835 220.023ZM125.174 224.412C125.174 223.55 124.976 222.788 124.579 222.125C124.189 221.462 123.554 221.13 122.672 221.13C121.612 221.13 120.884 221.633 120.488 222.638C120.283 223.171 120.18 223.848 120.18 224.668C120.18 225.967 120.525 226.879 121.216 227.406C121.626 227.713 122.111 227.867 122.672 227.867C123.485 227.867 124.104 227.553 124.528 226.924C124.958 226.295 125.174 225.458 125.174 224.412ZM130.373 214.886H133.295V230H130.373V214.886ZM136.576 220.033C137.349 219.049 138.675 218.557 140.555 218.557C141.778 218.557 142.865 218.799 143.815 219.285C144.766 219.77 145.241 220.686 145.241 222.033V227.16C145.241 227.515 145.248 227.946 145.261 228.452C145.282 228.834 145.34 229.094 145.436 229.231C145.531 229.368 145.675 229.48 145.866 229.569V230H142.688C142.599 229.774 142.537 229.562 142.503 229.364C142.469 229.166 142.441 228.94 142.421 228.688C142.018 229.125 141.553 229.498 141.026 229.805C140.397 230.167 139.687 230.349 138.894 230.349C137.882 230.349 137.044 230.062 136.381 229.487C135.725 228.906 135.397 228.086 135.397 227.026C135.397 225.652 135.927 224.658 136.986 224.042C137.567 223.708 138.422 223.468 139.55 223.325L140.544 223.202C141.084 223.133 141.471 223.048 141.703 222.945C142.12 222.768 142.329 222.491 142.329 222.115C142.329 221.657 142.168 221.342 141.847 221.171C141.532 220.994 141.067 220.905 140.452 220.905C139.762 220.905 139.273 221.076 138.986 221.417C138.781 221.67 138.644 222.012 138.576 222.443H135.756C135.817 221.465 136.091 220.662 136.576 220.033ZM138.75 227.888C139.023 228.113 139.358 228.226 139.755 228.226C140.384 228.226 140.961 228.042 141.488 227.672C142.021 227.303 142.298 226.63 142.318 225.652V224.565C142.134 224.682 141.946 224.777 141.754 224.853C141.57 224.921 141.313 224.986 140.985 225.047L140.329 225.17C139.714 225.28 139.273 225.413 139.006 225.57C138.555 225.837 138.33 226.25 138.33 226.811C138.33 227.31 138.47 227.669 138.75 227.888ZM157.515 222.833H154.521C154.466 222.416 154.326 222.04 154.1 221.705C153.772 221.253 153.263 221.028 152.572 221.028C151.588 221.028 150.915 221.517 150.552 222.494C150.361 223.014 150.265 223.704 150.265 224.565C150.265 225.386 150.361 226.045 150.552 226.544C150.901 227.474 151.557 227.939 152.521 227.939C153.205 227.939 153.69 227.754 153.977 227.385C154.264 227.016 154.438 226.538 154.5 225.95H157.484C157.416 226.838 157.094 227.679 156.52 228.472C155.604 229.75 154.247 230.39 152.449 230.39C150.651 230.39 149.329 229.856 148.481 228.79C147.633 227.724 147.209 226.339 147.209 224.637C147.209 222.716 147.678 221.223 148.614 220.156C149.551 219.09 150.843 218.557 152.49 218.557C153.892 218.557 155.037 218.871 155.925 219.5C156.821 220.129 157.351 221.24 157.515 222.833ZM169.102 226.719C169.026 227.382 168.681 228.055 168.066 228.739C167.109 229.826 165.769 230.369 164.046 230.369C162.625 230.369 161.37 229.911 160.283 228.995C159.196 228.079 158.653 226.589 158.653 224.524C158.653 222.59 159.142 221.106 160.119 220.074C161.104 219.042 162.378 218.526 163.944 218.526C164.874 218.526 165.711 218.7 166.456 219.049C167.201 219.397 167.816 219.948 168.302 220.7C168.739 221.363 169.023 222.132 169.153 223.007C169.228 223.52 169.259 224.258 169.245 225.222H161.596C161.637 226.343 161.989 227.129 162.652 227.58C163.055 227.86 163.541 228 164.108 228C164.709 228 165.198 227.83 165.574 227.488C165.779 227.303 165.96 227.047 166.118 226.719H169.102ZM166.21 223.294C166.162 222.521 165.926 221.937 165.502 221.541C165.085 221.137 164.566 220.936 163.944 220.936C163.267 220.936 162.741 221.147 162.365 221.571C161.996 221.995 161.763 222.569 161.667 223.294H166.21ZM177.489 220.033C178.262 219.049 179.588 218.557 181.468 218.557C182.691 218.557 183.778 218.799 184.729 219.285C185.679 219.77 186.154 220.686 186.154 222.033V227.16C186.154 227.515 186.161 227.946 186.174 228.452C186.195 228.834 186.253 229.094 186.349 229.231C186.444 229.368 186.588 229.48 186.779 229.569V230H183.601C183.512 229.774 183.45 229.562 183.416 229.364C183.382 229.166 183.354 228.94 183.334 228.688C182.931 229.125 182.466 229.498 181.939 229.805C181.311 230.167 180.6 230.349 179.807 230.349C178.795 230.349 177.958 230.062 177.294 229.487C176.638 228.906 176.31 228.086 176.31 227.026C176.31 225.652 176.84 224.658 177.899 224.042C178.48 223.708 179.335 223.468 180.463 223.325L181.458 223.202C181.998 223.133 182.384 223.048 182.616 222.945C183.033 222.768 183.242 222.491 183.242 222.115C183.242 221.657 183.081 221.342 182.76 221.171C182.445 220.994 181.98 220.905 181.365 220.905C180.675 220.905 180.186 221.076 179.899 221.417C179.694 221.67 179.557 222.012 179.489 222.443H176.669C176.73 221.465 177.004 220.662 177.489 220.033ZM179.663 227.888C179.937 228.113 180.271 228.226 180.668 228.226C181.297 228.226 181.875 228.042 182.401 227.672C182.934 227.303 183.211 226.63 183.231 225.652V224.565C183.047 224.682 182.859 224.777 182.667 224.853C182.483 224.921 182.227 224.986 181.898 225.047L181.242 225.17C180.627 225.28 180.186 225.413 179.919 225.57C179.468 225.837 179.243 226.25 179.243 226.811C179.243 227.31 179.383 227.669 179.663 227.888ZM194.019 220.987C193.027 220.987 192.347 221.407 191.978 222.248C191.787 222.692 191.691 223.26 191.691 223.95V230H188.779V218.844H191.599V220.474C191.975 219.9 192.33 219.486 192.665 219.233C193.267 218.782 194.029 218.557 194.952 218.557C196.107 218.557 197.05 218.861 197.782 219.469C198.52 220.071 198.889 221.072 198.889 222.474V230H195.895V223.202C195.895 222.614 195.816 222.163 195.659 221.848C195.372 221.274 194.825 220.987 194.019 220.987ZM216.762 220.238C217.705 221.421 218.177 222.819 218.177 224.432C218.177 226.073 217.705 227.478 216.762 228.646C215.818 229.809 214.386 230.39 212.465 230.39C210.544 230.39 209.112 229.809 208.169 228.646C207.226 227.478 206.754 226.073 206.754 224.432C206.754 222.819 207.226 221.421 208.169 220.238C209.112 219.056 210.544 218.464 212.465 218.464C214.386 218.464 215.818 219.056 216.762 220.238ZM212.455 220.936C211.601 220.936 210.941 221.24 210.476 221.848C210.018 222.45 209.789 223.311 209.789 224.432C209.789 225.553 210.018 226.418 210.476 227.026C210.941 227.635 211.601 227.939 212.455 227.939C213.31 227.939 213.966 227.635 214.424 227.026C214.882 226.418 215.111 225.553 215.111 224.432C215.111 223.311 214.882 222.45 214.424 221.848C213.966 221.24 213.31 220.936 212.455 220.936ZM225.898 221.52C224.722 221.52 223.933 221.903 223.529 222.668C223.304 223.099 223.191 223.762 223.191 224.658V230H220.248V218.823H223.037V220.771C223.488 220.026 223.881 219.517 224.216 219.244C224.763 218.786 225.474 218.557 226.349 218.557C226.404 218.557 226.448 218.56 226.482 218.567C226.523 218.567 226.609 218.57 226.739 218.577V221.571C226.554 221.551 226.39 221.537 226.247 221.53C226.103 221.523 225.987 221.52 225.898 221.52ZM238.633 214.906V230H235.793V228.452C235.376 229.115 234.901 229.597 234.368 229.897C233.834 230.198 233.171 230.349 232.378 230.349C231.073 230.349 229.972 229.822 229.077 228.77C228.188 227.71 227.744 226.353 227.744 224.699C227.744 222.792 228.181 221.291 229.056 220.197C229.938 219.104 231.114 218.557 232.583 218.557C233.26 218.557 233.862 218.707 234.388 219.008C234.915 219.302 235.342 219.712 235.67 220.238V214.906H238.633ZM230.758 224.483C230.758 225.516 230.963 226.339 231.374 226.955C231.777 227.577 232.392 227.888 233.219 227.888C234.046 227.888 234.675 227.58 235.106 226.965C235.537 226.35 235.752 225.553 235.752 224.576C235.752 223.208 235.407 222.231 234.716 221.643C234.292 221.288 233.8 221.11 233.24 221.11C232.385 221.11 231.756 221.435 231.353 222.084C230.957 222.727 230.758 223.526 230.758 224.483ZM250.866 226.719C250.791 227.382 250.446 228.055 249.831 228.739C248.874 229.826 247.534 230.369 245.811 230.369C244.389 230.369 243.135 229.911 242.048 228.995C240.961 228.079 240.417 226.589 240.417 224.524C240.417 222.59 240.906 221.106 241.884 220.074C242.868 219.042 244.143 218.526 245.708 218.526C246.638 218.526 247.476 218.7 248.221 219.049C248.966 219.397 249.581 219.948 250.066 220.7C250.504 221.363 250.788 222.132 250.917 223.007C250.993 223.52 251.023 224.258 251.01 225.222H243.36C243.401 226.343 243.753 227.129 244.417 227.58C244.82 227.86 245.305 228 245.873 228C246.474 228 246.963 227.83 247.339 227.488C247.544 227.303 247.725 227.047 247.882 226.719H250.866ZM247.975 223.294C247.927 222.521 247.691 221.937 247.267 221.541C246.85 221.137 246.331 220.936 245.708 220.936C245.032 220.936 244.505 221.147 244.129 221.571C243.76 221.995 243.528 222.569 243.432 223.294H247.975ZM258.608 221.52C257.432 221.52 256.643 221.903 256.239 222.668C256.014 223.099 255.901 223.762 255.901 224.658V230H252.958V218.823H255.747V220.771C256.198 220.026 256.591 219.517 256.926 219.244C257.473 218.786 258.184 218.557 259.059 218.557C259.114 218.557 259.158 218.56 259.192 218.567C259.233 218.567 259.319 218.57 259.449 218.577V221.571C259.264 221.551 259.1 221.537 258.957 221.53C258.813 221.523 258.697 221.52 258.608 221.52ZM259.972 226.944H263.079V230H259.972V226.944Z" fill="black"/>
</svg>
