<svg width="53" height="52" viewBox="0 0 53 52" fill="none" xmlns="http://www.w3.org/2000/svg">
<path d="M31.1829 26.8732V19.7746M26.5 26.8732V19.7746M21.4268 26.8732V19.7746M14.0122 14.6479H10.5L15.1829 32H37.8171L42.5 14.6479H39.3781M14.0122 14.6479L23.7683 4M14.0122 14.6479H39.3781M28.8415 4L39.3781 14.6479" stroke="black" stroke-width="2" stroke-linecap="round" stroke-linejoin="round"/>
<path d="M19.6611 43.6191C20.2503 43.6191 20.7288 43.7624 21.0967 44.0488C21.4678 44.3353 21.6908 44.8285 21.7656 45.5283H20.9111C20.859 45.2061 20.7402 44.9391 20.5547 44.7275C20.3691 44.5127 20.0713 44.4053 19.6611 44.4053C19.1012 44.4053 18.7008 44.6787 18.46 45.2256C18.3037 45.5804 18.2256 46.0182 18.2256 46.5391C18.2256 47.0632 18.3363 47.5042 18.5576 47.8623C18.779 48.2204 19.1273 48.3994 19.6025 48.3994C19.9671 48.3994 20.2552 48.2887 20.4668 48.0674C20.6816 47.8428 20.8298 47.5368 20.9111 47.1494H21.7656C21.668 47.8428 21.4238 48.3506 21.0332 48.6729C20.6426 48.9919 20.1429 49.1514 19.5342 49.1514C18.8506 49.1514 18.3053 48.9023 17.8984 48.4043C17.4915 47.903 17.2881 47.278 17.2881 46.5293C17.2881 45.6113 17.5111 44.8968 17.957 44.3857C18.403 43.8747 18.971 43.6191 19.6611 43.6191ZM23.3184 47.6084C23.3184 47.8623 23.4111 48.0625 23.5967 48.209C23.7822 48.3555 24.002 48.4287 24.2559 48.4287C24.5651 48.4287 24.8646 48.3571 25.1543 48.2139C25.6426 47.9762 25.8867 47.5872 25.8867 47.0469V46.3389C25.7793 46.4072 25.641 46.4642 25.4717 46.5098C25.3024 46.5553 25.1364 46.5879 24.9736 46.6074L24.4414 46.6758C24.1224 46.7181 23.8831 46.7848 23.7236 46.876C23.4535 47.029 23.3184 47.2731 23.3184 47.6084ZM25.4473 45.8311C25.6491 45.805 25.7842 45.7204 25.8525 45.5771C25.8916 45.499 25.9111 45.3867 25.9111 45.2402C25.9111 44.9408 25.8037 44.7243 25.5889 44.5908C25.3773 44.4541 25.0729 44.3857 24.6758 44.3857C24.2168 44.3857 23.8913 44.5094 23.6992 44.7568C23.5918 44.8936 23.5218 45.097 23.4893 45.3672H22.6689C22.6852 44.7227 22.8936 44.2751 23.2939 44.0244C23.6976 43.7705 24.1647 43.6436 24.6953 43.6436C25.3105 43.6436 25.8102 43.7607 26.1943 43.9951C26.5752 44.2295 26.7656 44.5941 26.7656 45.0889V48.1016C26.7656 48.1927 26.7835 48.266 26.8193 48.3213C26.8584 48.3766 26.9382 48.4043 27.0586 48.4043C27.0977 48.4043 27.1416 48.4027 27.1904 48.3994C27.2393 48.3929 27.2913 48.3848 27.3467 48.375V49.0244C27.21 49.0635 27.1058 49.0879 27.0342 49.0977C26.9626 49.1074 26.8649 49.1123 26.7412 49.1123C26.4385 49.1123 26.2188 49.0049 26.082 48.79C26.0104 48.6761 25.96 48.515 25.9307 48.3066C25.7516 48.541 25.4945 48.7445 25.1592 48.917C24.8239 49.0895 24.4544 49.1758 24.0508 49.1758C23.5658 49.1758 23.1686 49.0293 22.8594 48.7363C22.5534 48.4401 22.4004 48.0706 22.4004 47.6279C22.4004 47.1429 22.5518 46.7669 22.8545 46.5C23.1572 46.2331 23.5544 46.0687 24.0459 46.0068L25.4473 45.8311ZM28.2354 43.7705H29.0703V44.6738C29.1387 44.498 29.3063 44.2848 29.5732 44.0342C29.8402 43.7803 30.1478 43.6533 30.4961 43.6533C30.5124 43.6533 30.54 43.6549 30.5791 43.6582C30.6182 43.6615 30.6849 43.668 30.7793 43.6777V44.6055C30.7272 44.5957 30.6784 44.5892 30.6328 44.5859C30.5905 44.5827 30.5433 44.5811 30.4912 44.5811C30.0485 44.5811 29.7083 44.7243 29.4707 45.0107C29.2331 45.2939 29.1143 45.6211 29.1143 45.9922V49H28.2354V43.7705ZM31.7168 42.3105H32.6055V43.7705H33.4404V44.4883H32.6055V47.9014C32.6055 48.0837 32.6673 48.2057 32.791 48.2676C32.8594 48.3034 32.9733 48.3213 33.1328 48.3213C33.1751 48.3213 33.2207 48.3213 33.2695 48.3213C33.3184 48.318 33.3753 48.3132 33.4404 48.3066V49C33.3395 49.0293 33.2337 49.0505 33.123 49.0635C33.0156 49.0765 32.8984 49.083 32.7715 49.083C32.3613 49.083 32.083 48.9788 31.9365 48.7705C31.79 48.5589 31.7168 48.2855 31.7168 47.9502V44.4883H31.0088V43.7705H31.7168V42.3105Z" fill="black"/>
</svg>
