<svg width="53" height="52" viewBox="0 0 53 52" fill="none" xmlns="http://www.w3.org/2000/svg">
<path d="M40.0325 6.4754C39.2506 5.69063 38.3222 5.06809 37.3004 4.64335C36.2786 4.21861 35.1834 4 34.0774 4C32.9714 4 31.8762 4.21861 30.8544 4.64335C29.8326 5.06809 28.9042 5.69063 28.1223 6.4754L26.4996 8.10333L24.8769 6.4754C23.2975 4.89096 21.1554 4.00082 18.9218 4.00082C16.6882 4.00082 14.5461 4.89096 12.9667 6.4754C11.3873 8.05985 10.5 10.2088 10.5 12.4496C10.5 14.6903 11.3873 16.8393 12.9667 18.4237L14.5894 20.0517L26.4996 32L38.4098 20.0517L40.0325 18.4237C40.8148 17.6393 41.4353 16.708 41.8587 15.6829C42.2821 14.6579 42.5 13.5592 42.5 12.4496C42.5 11.34 42.2821 10.2413 41.8587 9.21622C41.4353 8.19115 40.8148 7.25981 40.0325 6.4754V6.4754Z" stroke="black" stroke-width="2" stroke-linecap="round" stroke-linejoin="round"/>
<path d="M10.8643 42.9746C10.8773 42.61 10.9408 42.3431 11.0547 42.1738C11.2598 41.8743 11.6553 41.7246 12.2412 41.7246C12.2965 41.7246 12.3535 41.7262 12.4121 41.7295C12.4707 41.7327 12.5374 41.7376 12.6123 41.7441V42.5449C12.5212 42.5384 12.4544 42.5352 12.4121 42.5352C12.373 42.5319 12.3356 42.5303 12.2998 42.5303C12.0329 42.5303 11.8734 42.6003 11.8213 42.7402C11.7692 42.877 11.7432 43.2285 11.7432 43.7949H12.6123V44.4883H11.7334V49H10.8643V44.4883H10.1367V43.7949H10.8643V42.9746ZM14.1016 47.6084C14.1016 47.8623 14.1943 48.0625 14.3799 48.209C14.5654 48.3555 14.7852 48.4287 15.0391 48.4287C15.3483 48.4287 15.6478 48.3571 15.9375 48.2139C16.4258 47.9762 16.6699 47.5872 16.6699 47.0469V46.3389C16.5625 46.4072 16.4242 46.4642 16.2549 46.5098C16.0856 46.5553 15.9196 46.5879 15.7568 46.6074L15.2246 46.6758C14.9056 46.7181 14.6663 46.7848 14.5068 46.876C14.2367 47.029 14.1016 47.2731 14.1016 47.6084ZM16.2305 45.8311C16.4323 45.805 16.5674 45.7204 16.6357 45.5771C16.6748 45.499 16.6943 45.3867 16.6943 45.2402C16.6943 44.9408 16.5869 44.7243 16.3721 44.5908C16.1605 44.4541 15.8561 44.3857 15.459 44.3857C15 44.3857 14.6745 44.5094 14.4824 44.7568C14.375 44.8936 14.305 45.097 14.2725 45.3672H13.4521C13.4684 44.7227 13.6768 44.2751 14.0771 44.0244C14.4808 43.7705 14.9479 43.6436 15.4785 43.6436C16.0938 43.6436 16.5934 43.7607 16.9775 43.9951C17.3584 44.2295 17.5488 44.5941 17.5488 45.0889V48.1016C17.5488 48.1927 17.5667 48.266 17.6025 48.3213C17.6416 48.3766 17.7214 48.4043 17.8418 48.4043C17.8809 48.4043 17.9248 48.4027 17.9736 48.3994C18.0225 48.3929 18.0745 48.3848 18.1299 48.375V49.0244C17.9932 49.0635 17.889 49.0879 17.8174 49.0977C17.7458 49.1074 17.6481 49.1123 17.5244 49.1123C17.2217 49.1123 17.002 49.0049 16.8652 48.79C16.7936 48.6761 16.7432 48.515 16.7139 48.3066C16.5348 48.541 16.2777 48.7445 15.9424 48.917C15.6071 49.0895 15.2376 49.1758 14.834 49.1758C14.349 49.1758 13.9518 49.0293 13.6426 48.7363C13.3366 48.4401 13.1836 48.0706 13.1836 47.6279C13.1836 47.1429 13.335 46.7669 13.6377 46.5C13.9404 46.2331 14.3376 46.0687 14.8291 46.0068L16.2305 45.8311ZM19.4238 43.7705L20.8203 48.0283L22.2803 43.7705H23.2422L21.2695 49H20.332L18.4033 43.7705H19.4238ZM26.0693 48.4336C26.652 48.4336 27.0508 48.2139 27.2656 47.7744C27.4837 47.3317 27.5928 46.8402 27.5928 46.2998C27.5928 45.8115 27.5146 45.4144 27.3584 45.1084C27.111 44.6266 26.6846 44.3857 26.0791 44.3857C25.542 44.3857 25.1514 44.5908 24.9072 45.001C24.6631 45.4111 24.541 45.9059 24.541 46.4854C24.541 47.042 24.6631 47.5059 24.9072 47.877C25.1514 48.248 25.5387 48.4336 26.0693 48.4336ZM26.1035 43.6191C26.7773 43.6191 27.347 43.8438 27.8125 44.293C28.278 44.7422 28.5107 45.403 28.5107 46.2754C28.5107 47.1185 28.3057 47.8151 27.8955 48.3652C27.4854 48.9154 26.849 49.1904 25.9863 49.1904C25.2669 49.1904 24.6956 48.9479 24.2725 48.4629C23.8493 47.9746 23.6377 47.3203 23.6377 46.5C23.6377 45.6211 23.8607 44.9212 24.3066 44.4004C24.7526 43.8796 25.3516 43.6191 26.1035 43.6191ZM29.585 43.7705H30.4199V44.6738C30.4883 44.498 30.6559 44.2848 30.9229 44.0342C31.1898 43.7803 31.4974 43.6533 31.8457 43.6533C31.862 43.6533 31.8896 43.6549 31.9287 43.6582C31.9678 43.6615 32.0345 43.668 32.1289 43.6777V44.6055C32.0768 44.5957 32.028 44.5892 31.9824 44.5859C31.9401 44.5827 31.8929 44.5811 31.8408 44.5811C31.3981 44.5811 31.0579 44.7243 30.8203 45.0107C30.5827 45.2939 30.4639 45.6211 30.4639 45.9922V49H29.585V43.7705ZM32.8906 43.7949H33.7842V49H32.8906V43.7949ZM32.8906 41.8271H33.7842V42.8232H32.8906V41.8271ZM35.293 42.3105H36.1816V43.7705H37.0166V44.4883H36.1816V47.9014C36.1816 48.0837 36.2435 48.2057 36.3672 48.2676C36.4355 48.3034 36.5495 48.3213 36.709 48.3213C36.7513 48.3213 36.7969 48.3213 36.8457 48.3213C36.8945 48.318 36.9515 48.3132 37.0166 48.3066V49C36.9157 49.0293 36.8099 49.0505 36.6992 49.0635C36.5918 49.0765 36.4746 49.083 36.3477 49.083C35.9375 49.083 35.6592 48.9788 35.5127 48.7705C35.3662 48.5589 35.293 48.2855 35.293 47.9502V44.4883H34.585V43.7705H35.293V42.3105ZM40.0781 43.6533C40.4492 43.6533 40.8089 43.7412 41.1572 43.917C41.5055 44.0895 41.7708 44.3141 41.9531 44.5908C42.1289 44.8545 42.2461 45.1621 42.3047 45.5137C42.3568 45.7546 42.3828 46.1387 42.3828 46.666H38.5498C38.5661 47.1966 38.6914 47.623 38.9258 47.9453C39.1602 48.2643 39.5231 48.4238 40.0146 48.4238C40.4736 48.4238 40.8398 48.2725 41.1133 47.9697C41.2695 47.7939 41.3802 47.5905 41.4453 47.3594H42.3096C42.2868 47.5514 42.2103 47.7663 42.0801 48.0039C41.9531 48.2383 41.8099 48.4303 41.6504 48.5801C41.3835 48.8405 41.0531 49.0163 40.6592 49.1074C40.4476 49.1595 40.2083 49.1855 39.9414 49.1855C39.2904 49.1855 38.7386 48.9495 38.2861 48.4775C37.8337 48.0023 37.6074 47.3382 37.6074 46.4854C37.6074 45.6455 37.8353 44.9635 38.291 44.4395C38.7467 43.9154 39.3424 43.6533 40.0781 43.6533ZM41.4795 45.9678C41.4437 45.5869 41.3607 45.2826 41.2305 45.0547C40.9896 44.6315 40.5876 44.4199 40.0244 44.4199C39.6208 44.4199 39.2822 44.5664 39.0088 44.8594C38.7354 45.1491 38.5905 45.5186 38.5742 45.9678H41.4795Z" fill="black"/>
</svg>
