<svg width="53" height="52" viewBox="0 0 53 52" fill="none" xmlns="http://www.w3.org/2000/svg">
<path d="M26.5 12C25.7889 11.8333 24.3667 11.1 24.3667 9.5C24.3667 7.9 25.4333 6.5 25.9667 6C26.1444 5.83333 26.7133 5.2 27.5667 4M33.9667 12C33.2556 11.8333 31.8333 11.1 31.8333 9.5C31.8333 7.9 32.9 6.5 33.4333 6C33.6111 5.83333 34.18 5.2 35.0333 4M19.0333 12C18.3222 11.8333 16.9 11.1 16.9 9.5C16.9 7.9 17.9667 6.5 18.5 6C18.6778 5.83333 19.2467 5.2 20.1 4M33.0085 32H20.2627V29.9683C17.4605 29.037 11.5848 25.6508 10.5 19.5556C10.5 16.508 10.5 17.0159 10.5 16H42.5V19.5556C41.8673 22.9418 39.2458 27.6826 33.0085 29.9683C33.0085 31.4921 33.0085 30.7302 33.0085 32Z" stroke="black" stroke-width="2" stroke-linecap="round" stroke-linejoin="round"/>
<path d="M13.6445 43.7705H14.5137V44.5127C14.722 44.2555 14.9108 44.0684 15.0801 43.9512C15.3698 43.7526 15.6986 43.6533 16.0664 43.6533C16.4831 43.6533 16.8184 43.7559 17.0723 43.9609C17.2155 44.0781 17.3457 44.2507 17.4629 44.4785C17.6582 44.1986 17.8877 43.9919 18.1514 43.8584C18.415 43.7217 18.7113 43.6533 19.04 43.6533C19.7432 43.6533 20.2217 43.9072 20.4756 44.415C20.6123 44.6885 20.6807 45.0563 20.6807 45.5186V49H19.7676V45.3672C19.7676 45.0189 19.6797 44.7796 19.5039 44.6494C19.3314 44.5192 19.1198 44.4541 18.8691 44.4541C18.5241 44.4541 18.2262 44.5697 17.9756 44.8008C17.7282 45.0319 17.6045 45.4176 17.6045 45.958V49H16.7109V45.5869C16.7109 45.2321 16.6686 44.9733 16.584 44.8105C16.4505 44.5664 16.2015 44.4443 15.8369 44.4443C15.5049 44.4443 15.2021 44.5729 14.9287 44.8301C14.6585 45.0872 14.5234 45.5527 14.5234 46.2266V49H13.6445V43.7705ZM24.1523 43.6533C24.5234 43.6533 24.8831 43.7412 25.2314 43.917C25.5798 44.0895 25.8451 44.3141 26.0273 44.5908C26.2031 44.8545 26.3203 45.1621 26.3789 45.5137C26.431 45.7546 26.457 46.1387 26.457 46.666H22.624C22.6403 47.1966 22.7656 47.623 23 47.9453C23.2344 48.2643 23.5973 48.4238 24.0889 48.4238C24.5479 48.4238 24.9141 48.2725 25.1875 47.9697C25.3438 47.7939 25.4544 47.5905 25.5195 47.3594H26.3838C26.361 47.5514 26.2845 47.7663 26.1543 48.0039C26.0273 48.2383 25.8841 48.4303 25.7246 48.5801C25.4577 48.8405 25.1273 49.0163 24.7334 49.1074C24.5218 49.1595 24.2826 49.1855 24.0156 49.1855C23.3646 49.1855 22.8128 48.9495 22.3604 48.4775C21.9079 48.0023 21.6816 47.3382 21.6816 46.4854C21.6816 45.6455 21.9095 44.9635 22.3652 44.4395C22.821 43.9154 23.4167 43.6533 24.1523 43.6533ZM25.5537 45.9678C25.5179 45.5869 25.4349 45.2826 25.3047 45.0547C25.0638 44.6315 24.6618 44.4199 24.0986 44.4199C23.695 44.4199 23.3564 44.5664 23.083 44.8594C22.8096 45.1491 22.6647 45.5186 22.6484 45.9678H25.5537ZM27.541 43.7705H28.376V44.5127C28.6234 44.2067 28.8854 43.987 29.1621 43.8535C29.4388 43.7201 29.7464 43.6533 30.085 43.6533C30.8271 43.6533 31.3285 43.9121 31.5889 44.4297C31.7321 44.7129 31.8037 45.1182 31.8037 45.6455V49H30.9102V45.7041C30.9102 45.3851 30.863 45.1279 30.7686 44.9326C30.6123 44.6071 30.3291 44.4443 29.9189 44.4443C29.7106 44.4443 29.5397 44.4655 29.4062 44.5078C29.1654 44.5794 28.9538 44.7227 28.7715 44.9375C28.625 45.11 28.529 45.2891 28.4834 45.4746C28.4411 45.6569 28.4199 45.9189 28.4199 46.2607V49H27.541V43.7705ZM33.9863 43.7705V47.2422C33.9863 47.5091 34.0286 47.7272 34.1133 47.8965C34.2695 48.209 34.5609 48.3652 34.9873 48.3652C35.5993 48.3652 36.016 48.0918 36.2373 47.5449C36.3577 47.252 36.418 46.8499 36.418 46.3389V43.7705H37.2969V49H36.4668L36.4766 48.2285C36.3626 48.4271 36.221 48.5947 36.0518 48.7314C35.7165 49.0049 35.3096 49.1416 34.8311 49.1416C34.0856 49.1416 33.5778 48.8926 33.3076 48.3945C33.1611 48.1276 33.0879 47.7712 33.0879 47.3252V43.7705H33.9863Z" fill="black"/>
</svg>
