<svg width="53" height="52" viewBox="0 0 53 52" fill="none" xmlns="http://www.w3.org/2000/svg">
<path d="M10.5 34.0002C11 30.5002 11.3488 25.6448 16.5 24.5002C20.1667 23.6855 33.5555 23.8571 36 24.5002C40 26.0002 41 30.0002 42 34.0002" stroke="black" stroke-width="2" stroke-linecap="round" stroke-linejoin="round"/>
<circle cx="26.2778" cy="10.7778" r="8.7778" stroke="black" stroke-width="2"/>
<path d="M12.8516 48.4092C13.2617 48.4092 13.6019 48.2383 13.8721 47.8965C14.1455 47.5514 14.2822 47.0371 14.2822 46.3535C14.2822 45.9368 14.222 45.5788 14.1016 45.2793C13.8737 44.7031 13.457 44.415 12.8516 44.415C12.2428 44.415 11.8262 44.7194 11.6016 45.3281C11.4811 45.6536 11.4209 46.0671 11.4209 46.5684C11.4209 46.972 11.4811 47.3154 11.6016 47.5986C11.8294 48.139 12.2461 48.4092 12.8516 48.4092ZM10.5762 43.7949H11.4307V44.4883C11.6064 44.2507 11.7985 44.0667 12.0068 43.9365C12.3031 43.7412 12.6514 43.6436 13.0518 43.6436C13.6442 43.6436 14.1471 43.8714 14.5605 44.3271C14.974 44.7796 15.1807 45.4274 15.1807 46.2705C15.1807 47.4098 14.8828 48.2236 14.2871 48.7119C13.9095 49.0212 13.4701 49.1758 12.9688 49.1758C12.5749 49.1758 12.2445 49.0895 11.9775 48.917C11.8213 48.8193 11.6471 48.6517 11.4551 48.4141V51.085H10.5762V43.7949ZM18.3887 43.6533C18.7598 43.6533 19.1195 43.7412 19.4678 43.917C19.8161 44.0895 20.0814 44.3141 20.2637 44.5908C20.4395 44.8545 20.5566 45.1621 20.6152 45.5137C20.6673 45.7546 20.6934 46.1387 20.6934 46.666H16.8604C16.8766 47.1966 17.002 47.623 17.2363 47.9453C17.4707 48.2643 17.8337 48.4238 18.3252 48.4238C18.7842 48.4238 19.1504 48.2725 19.4238 47.9697C19.5801 47.7939 19.6908 47.5905 19.7559 47.3594H20.6201C20.5973 47.5514 20.5208 47.7663 20.3906 48.0039C20.2637 48.2383 20.1204 48.4303 19.9609 48.5801C19.694 48.8405 19.3636 49.0163 18.9697 49.1074C18.7581 49.1595 18.5189 49.1855 18.252 49.1855C17.6009 49.1855 17.0492 48.9495 16.5967 48.4775C16.1442 48.0023 15.918 47.3382 15.918 46.4854C15.918 45.6455 16.1458 44.9635 16.6016 44.4395C17.0573 43.9154 17.653 43.6533 18.3887 43.6533ZM19.79 45.9678C19.7542 45.5869 19.6712 45.2826 19.541 45.0547C19.3001 44.6315 18.8981 44.4199 18.335 44.4199C17.9313 44.4199 17.5928 44.5664 17.3193 44.8594C17.0459 45.1491 16.901 45.5186 16.8848 45.9678H19.79ZM21.8018 43.7705H22.6367V44.6738C22.7051 44.498 22.8727 44.2848 23.1396 44.0342C23.4066 43.7803 23.7142 43.6533 24.0625 43.6533C24.0788 43.6533 24.1064 43.6549 24.1455 43.6582C24.1846 43.6615 24.2513 43.668 24.3457 43.6777V44.6055C24.2936 44.5957 24.2448 44.5892 24.1992 44.5859C24.1569 44.5827 24.1097 44.5811 24.0576 44.5811C23.6149 44.5811 23.2747 44.7243 23.0371 45.0107C22.7995 45.2939 22.6807 45.6211 22.6807 45.9922V49H21.8018V43.7705ZM25.6299 47.3594C25.6559 47.6523 25.7292 47.877 25.8496 48.0332C26.071 48.3164 26.4551 48.458 27.002 48.458C27.3275 48.458 27.6139 48.388 27.8613 48.248C28.1087 48.1048 28.2324 47.8851 28.2324 47.5889C28.2324 47.3643 28.1331 47.1934 27.9346 47.0762C27.8076 47.0046 27.557 46.9215 27.1826 46.8271L26.4844 46.6514C26.0384 46.5407 25.7096 46.417 25.498 46.2803C25.1204 46.0426 24.9316 45.7139 24.9316 45.2939C24.9316 44.7992 25.109 44.3988 25.4639 44.0928C25.8219 43.7868 26.3021 43.6338 26.9043 43.6338C27.6921 43.6338 28.2601 43.8649 28.6084 44.3271C28.8265 44.6201 28.9323 44.9359 28.9258 45.2744H28.0957C28.0794 45.0758 28.0094 44.8952 27.8857 44.7324C27.6839 44.5013 27.334 44.3857 26.8359 44.3857C26.5039 44.3857 26.2516 44.4492 26.0791 44.5762C25.9098 44.7031 25.8252 44.8708 25.8252 45.0791C25.8252 45.307 25.9375 45.4893 26.1621 45.626C26.2923 45.7074 26.4844 45.779 26.7383 45.8408L27.3193 45.9824C27.9508 46.1354 28.374 46.2835 28.5889 46.4268C28.9307 46.6514 29.1016 47.0046 29.1016 47.4863C29.1016 47.9518 28.9242 48.3538 28.5693 48.6924C28.2178 49.0309 27.6807 49.2002 26.958 49.2002C26.18 49.2002 25.6283 49.0244 25.3027 48.6729C24.9805 48.318 24.8079 47.8802 24.7852 47.3594H25.6299ZM32.1826 48.4336C32.7653 48.4336 33.1641 48.2139 33.3789 47.7744C33.597 47.3317 33.7061 46.8402 33.7061 46.2998C33.7061 45.8115 33.6279 45.4144 33.4717 45.1084C33.2243 44.6266 32.7979 44.3857 32.1924 44.3857C31.6553 44.3857 31.2646 44.5908 31.0205 45.001C30.7764 45.4111 30.6543 45.9059 30.6543 46.4854C30.6543 47.042 30.7764 47.5059 31.0205 47.877C31.2646 48.248 31.652 48.4336 32.1826 48.4336ZM32.2168 43.6191C32.8906 43.6191 33.4603 43.8438 33.9258 44.293C34.3913 44.7422 34.624 45.403 34.624 46.2754C34.624 47.1185 34.4189 47.8151 34.0088 48.3652C33.5986 48.9154 32.9622 49.1904 32.0996 49.1904C31.3802 49.1904 30.8089 48.9479 30.3857 48.4629C29.9626 47.9746 29.751 47.3203 29.751 46.5C29.751 45.6211 29.974 44.9212 30.4199 44.4004C30.8659 43.8796 31.4648 43.6191 32.2168 43.6191ZM35.6738 43.7705H36.5088V44.5127C36.7562 44.2067 37.0182 43.987 37.2949 43.8535C37.5716 43.7201 37.8792 43.6533 38.2178 43.6533C38.96 43.6533 39.4613 43.9121 39.7217 44.4297C39.8649 44.7129 39.9365 45.1182 39.9365 45.6455V49H39.043V45.7041C39.043 45.3851 38.9958 45.1279 38.9014 44.9326C38.7451 44.6071 38.4619 44.4443 38.0518 44.4443C37.8434 44.4443 37.6725 44.4655 37.5391 44.5078C37.2982 44.5794 37.0866 44.7227 36.9043 44.9375C36.7578 45.11 36.6618 45.2891 36.6162 45.4746C36.5739 45.6569 36.5527 45.9189 36.5527 46.2607V49H35.6738V43.7705Z" fill="black"/>
</svg>
